<?xml version="1.0"?>
<svg version="1.1" xmlns="http://www.w3.org/2000/svg" width="100" height="44" style=""><path fill="#" d="M15.74462890625,32.1806640625q0-0.42724609375,0.29296875-0.543212890625t0.634765625-0.115966796875q0.59814453125,0,1.01318359375,0.537109375t0.787353515625,1.177978515625t0.738525390625,1.177978515625t0.86669921875,0.537109375q0.37841796875,0,0.689697265625-0.189208984375t0.537109375-0.47607421875t0.347900390625-0.64697265625t0.1220703125-0.714111328125q0-0.927734375-0.372314453125-1.91650390625t-0.9521484375-2.03857421875t-1.226806640625-2.1484375t-1.220703125-2.23388671875t-0.9521484375-2.313232421875t-0.37841796875-2.374267578125q0-1.79443359375,1.07421875-2.783203125t2.83203125-0.98876953125q0.59814453125,0,1.20849609375,0.1708984375t1.123046875,0.5126953125t0.836181640625,0.84228515625t0.323486328125,1.171875q0,0.2197265625-0.323486328125,0.286865234375t-0.469970703125,0.067138671875q-0.2197265625,0-0.47607421875-0.054931640625t-0.32958984375-0.299072265625t-0.20751953125-0.5615234375t-0.335693359375-0.592041015625t-0.47607421875-0.47607421875t-0.604248046875-0.201416015625q-0.54931640625,0-0.933837890625,0.225830078125t-0.62255859375,0.604248046875t-0.35400390625,0.848388671875t-0.115966796875,0.970458984375q0,1.171875,0.40283203125,2.362060546875t1.0009765625,2.3681640625t1.300048828125,2.325439453125t1.300048828125,2.23388671875t1.0009765625,2.1240234375t0.40283203125,1.96533203125q0,0.830078125-0.390625,1.40380859375t-0.98876953125,0.933837890625t-1.324462890625,0.52490234375t-1.422119140625,0.164794921875q-0.74462890625,0-1.52587890625-0.299072265625t-1.40380859375-0.823974609375t-1.025390625-1.226806640625t-0.40283203125-1.519775390625z M26.726928710938,31.27734375l0-1.1474609375q0-0.62255859375,0.030517578125-1.763916015625t0.079345703125-2.50244140625t0.13427734375-2.838134765625t0.1953125-2.789306640625t0.262451171875-2.349853515625t0.347900390625-1.5380859375q0.1220703125-0.28076171875,0.40283203125-0.35400390625t0.54931640625-0.0732421875q0.42724609375,0,0.750732421875,0.189208984375t0.323486328125,0.689697265625l-0.2197265625,0.244140625q-0.42724609375,2.81982421875-0.54931640625,5.6640625t-0.1708984375,5.6884765625q0.30517578125-0.47607421875,0.689697265625-0.933837890625t0.8544921875-0.811767578125t1.01318359375-0.567626953125t1.190185546875-0.213623046875q0.830078125,0,1.373291015625,0.50048828125t0.897216796875,1.300048828125t0.52490234375,1.788330078125t0.262451171875,1.9775390625t0.128173828125,1.873779296875t0.10986328125,1.470947265625q-0.23193359375,0.3173828125-0.68359375,0.3173828125l-0.03662109375,0q-0.1953125,0-0.42724609375-0.048828125t-0.30517578125-0.244140625l0.0244140625,0.0244140625q-0.1708984375-0.37841796875-0.23193359375-1.092529296875t-0.09765625-1.57470703125t-0.128173828125-1.763916015625t-0.274658203125-1.6357421875t-0.537109375-1.20849609375t-0.9521484375-0.50048828125l-0.0732421875,0q-0.72021484375,0-1.20849609375,0.439453125q-0.5126953125,0.4638671875-0.830078125,1.220703125t-0.48828125,1.6845703125t-0.262451171875,1.788330078125t-0.140380859375,1.5625t-0.1220703125,1.031494140625q-0.0732421875,0.28076171875-0.433349609375,0.372314453125t-0.616455078125,0.091552734375q-0.59814453125,0-0.9765625-0.341796875q-0.28076171875-0.67138671875-0.32958984375-1.67236328125t-0.048828125-1.953125z M38.160888671875,30.1787109375q0-0.69580078125,0.177001953125-1.434326171875t0.5615234375-1.33056640625t0.970458984375-0.96435546875t1.416015625-0.372314453125q0.62255859375,0,1.312255859375,0.213623046875t1.263427734375,0.6103515625t0.933837890625,0.970458984375t0.360107421875,1.28173828125q0,0.8544921875-0.311279296875,1.62353515625t-0.872802734375,1.373291015625t-1.312255859375,0.9521484375t-1.629638671875,0.347900390625q-0.72021484375,0-1.25732421875-0.262451171875t-0.897216796875-0.701904296875t-0.537109375-1.03759765625t-0.177001953125-1.26953125z M39.955322265625,30.154296875q0,0.2197265625,0.067138671875,0.64697265625t0.201416015625,0.836181640625t0.347900390625,0.7080078125t0.518798828125,0.274658203125q0.64697265625-0.0732421875,1.068115234375-0.421142578125t0.68359375-0.848388671875t0.3662109375-1.08642578125t0.103759765625-1.11083984375q0-0.67138671875-0.262451171875-1.123046875t-0.860595703125-0.732421875q0,0.0244140625,0.0244140625,0.0244140625t0.0244140625-0.0244140625l-0.30517578125-0.0732421875q-0.1220703125-0.048828125-0.299072265625-0.10986328125t-0.347900390625-0.2685546875q-0.47607421875,0.1708984375-0.738525390625,0.439453125t-0.396728515625,0.653076171875t-0.164794921875,0.921630859375t-0.030517578125,1.2939453125z M47.409790039062,25.52783203125q0-0.57373046875,0.225830078125-0.848388671875t0.823974609375-0.274658203125q0.35400390625,0,0.665283203125,0.146484375t0.311279296875,0.62255859375q0.048828125,0.69580078125,0.048828125,1.458740234375t0.13427734375,1.446533203125q0.30517578125-0.50048828125,0.689697265625-1.0009765625t0.848388671875-0.89111328125t1.01318359375-0.628662109375t1.1962890625-0.238037109375q0.87890625,0,1.4892578125,0.3662109375t1.007080078125,0.9521484375t0.57373046875,1.324462890625t0.177001953125,1.483154296875q0,1.1474609375-0.347900390625,1.873779296875t-0.921630859375,1.141357421875t-1.300048828125,0.5615234375t-1.458740234375,0.146484375q-0.64697265625,0-1.20849609375-0.250244140625t-0.78125-0.946044921875q0-0.1953125,0.286865234375-0.244140625t0.408935546875-0.048828125q0.40283203125,0,0.59814453125,0.2197265625q0.146484375,0.1708984375,0.323486328125,0.347900390625t0.372314453125,0.177001953125q0.37841796875,0,0.79345703125-0.213623046875t0.762939453125-0.5615234375t0.5859375-0.823974609375t0.238037109375-0.9765625q0-0.42724609375-0.0732421875-1.06201171875t-0.250244140625-1.220703125t-0.48828125-1.01318359375t-0.787353515625-0.42724609375q-0.72021484375,0-1.300048828125,0.6591796875t-0.96435546875,1.5869140625t-0.59814453125,1.9287109375t-0.213623046875,1.67236328125t0.08544921875,1.69677734375t0.177001953125,2.130126953125t0.177001953125,2.130126953125t0.08544921875,1.69677734375q0,0.1708984375-0.140380859375,0.274658203125t-0.335693359375,0.164794921875t-0.396728515625,0.0732421875t-0.299072265625,0.01220703125q-0.32958984375,0-0.689697265625-0.0732421875t-0.494384765625-0.45166015625q-0.1708984375-0.59814453125-0.3173828125-1.702880859375t-0.262451171875-2.44140625t-0.201416015625-2.8076171875t-0.146484375-2.838134765625t-0.091552734375-2.50244140625t-0.030517578125-1.806640625z M59.1123046875,25.52783203125q0-0.57373046875,0.225830078125-0.848388671875t0.823974609375-0.274658203125q0.35400390625,0,0.665283203125,0.146484375t0.311279296875,0.62255859375q0.048828125,0.69580078125,0.048828125,1.458740234375t0.13427734375,1.446533203125q0.30517578125-0.50048828125,0.689697265625-1.0009765625t0.848388671875-0.89111328125t1.01318359375-0.628662109375t1.1962890625-0.238037109375q0.87890625,0,1.4892578125,0.3662109375t1.007080078125,0.9521484375t0.57373046875,1.324462890625t0.177001953125,1.483154296875q0,1.1474609375-0.347900390625,1.873779296875t-0.921630859375,1.141357421875t-1.300048828125,0.5615234375t-1.458740234375,0.146484375q-0.64697265625,0-1.20849609375-0.250244140625t-0.78125-0.946044921875q0-0.1953125,0.286865234375-0.244140625t0.408935546875-0.048828125q0.40283203125,0,0.59814453125,0.2197265625q0.146484375,0.1708984375,0.323486328125,0.347900390625t0.372314453125,0.177001953125q0.37841796875,0,0.79345703125-0.213623046875t0.762939453125-0.5615234375t0.5859375-0.823974609375t0.238037109375-0.9765625q0-0.42724609375-0.0732421875-1.06201171875t-0.250244140625-1.220703125t-0.48828125-1.01318359375t-0.787353515625-0.42724609375q-0.72021484375,0-1.300048828125,0.6591796875t-0.96435546875,1.5869140625t-0.59814453125,1.9287109375t-0.213623046875,1.67236328125t0.08544921875,1.69677734375t0.177001953125,2.130126953125t0.177001953125,2.130126953125t0.08544921875,1.69677734375q0,0.1708984375-0.140380859375,0.274658203125t-0.335693359375,0.164794921875t-0.396728515625,0.0732421875t-0.299072265625,0.01220703125q-0.32958984375,0-0.689697265625-0.0732421875t-0.494384765625-0.45166015625q-0.1708984375-0.59814453125-0.3173828125-1.702880859375t-0.262451171875-2.44140625t-0.201416015625-2.8076171875t-0.146484375-2.838134765625t-0.091552734375-2.50244140625t-0.030517578125-1.806640625z M70.814819335938,27.224609375q0-0.35400390625,0.201416015625-0.4638671875t0.506591796875-0.10986328125q0.50048828125,0,0.762939453125,0.189208984375t0.262451171875,0.665283203125q0,0.57373046875,0.08544921875,1.434326171875t0.250244140625,1.67236328125t0.390625,1.397705078125t0.469970703125,0.5859375q0.45166015625,0,0.799560546875-0.69580078125t0.6103515625-1.708984375t0.45166015625-2.178955078125t0.262451171875-2.081298828125q0.048828125-0.50048828125,0.238037109375-0.726318359375t0.689697265625-0.225830078125q0.57373046875,0,0.836181640625,0.47607421875t0.335693359375,1.171875q0.06103515625,0.59814453125,0.06103515625,1.2451171875l0,0.20751953125l0,0.48828125q0,0.4638671875,0.01220703125,0.830078125l0.35400390625,7.48291015625l0.048828125,1.2451171875q0.0244140625,0.1708984375,0.03662109375,0.323486328125t0.01220703125,0.323486328125q0,0.69580078125-0.299072265625,0.897216796875t-0.970458984375,0.201416015625q-0.146484375,0-0.372314453125-0.0244140625t-0.439453125-0.09765625t-0.3662109375-0.201416015625t-0.152587890625-0.323486328125l0.048828125-0.1220703125q0.06103515625-0.732421875,0.06103515625-1.5380859375l0-0.25634765625q-0.01220703125-0.9521484375-0.06103515625-1.9287109375t-0.10986328125-1.953125t-0.06103515625-1.8798828125q-0.1708984375,0.37841796875-0.396728515625,0.78125t-0.52490234375,0.726318359375t-0.677490234375,0.537109375t-0.8544921875,0.213623046875q-0.69580078125,0-1.1474609375-0.3662109375t-0.701904296875-0.9521484375t-0.360107421875-1.312255859375t-0.146484375-1.45263671875t-0.048828125-1.385498046875t-0.09765625-1.11083984375z"/><path fill="#" d=""/></svg>
